<svg version="1.1" id="Layer_1" xmlns="http://www.w3.org/2000/svg" xmlns:xlink="http://www.w3.org/1999/xlink" x="0px" y="0px"
	 width="100%" viewBox="0 0 216 233" enable-background="new 0 0 216 233" xml:space="preserve">
<path fill="#020202" opacity="1.000000" stroke="none" 
	d="
M106.000000,234.000000 
	C78.312439,234.000000 50.624878,234.000000 22.357330,233.642349 
	C26.307116,221.111572 30.836884,208.938461 35.446201,196.551559 
	C31.324535,195.934692 28.088306,195.898895 25.175961,194.909637 
	C20.779009,193.416061 16.387861,191.634354 12.388694,189.299500 
	C4.981612,184.975006 4.509019,176.793228 2.655944,169.608185 
	C1.463467,164.984528 6.280198,156.460480 10.381719,155.065613 
	C15.039473,153.481537 20.581945,153.024292 20.021154,145.829483 
	C20.547140,147.462006 21.073124,149.094528 21.723982,151.114624 
	C23.681820,150.694702 25.426638,150.357941 27.152887,149.943756 
	C34.725529,148.126938 41.262177,152.157074 42.728951,159.701797 
	C43.291138,162.593552 43.009621,165.753784 44.060677,168.417587 
	C45.184566,171.265961 46.940483,175.309265 49.262142,175.999313 
	C61.579884,179.660324 74.158379,182.446930 86.659813,185.481750 
	C87.717041,185.738403 89.454338,186.079391 89.890617,185.557587 
	C93.839630,180.834473 100.692566,178.174637 99.682037,169.949188 
	C98.748322,162.349045 100.978302,160.822433 108.689232,161.721924 
	C109.909782,161.864304 111.855759,161.185730 112.447998,160.245377 
	C113.888763,157.957642 114.979897,155.365768 115.742592,152.759094 
	C116.472916,150.263077 116.834862,147.605042 116.964531,144.998611 
	C117.246025,139.340408 115.634880,134.068787 114.286324,128.592911 
	C113.140663,123.940933 111.770203,119.895927 108.987259,116.243523 
	C105.574036,111.763893 101.939690,107.452751 98.123886,102.725540 
	C98.782585,101.990807 100.459091,100.824165 101.061249,99.247276 
	C101.640007,97.731606 101.816277,95.057350 100.916740,94.187263 
	C98.927147,92.262833 95.918266,91.432236 93.754295,89.637909 
	C91.062721,87.406120 87.685326,85.054672 86.599998,82.037041 
	C84.575165,76.407280 84.583824,70.648354 86.417892,64.319923 
	C90.369217,50.685886 99.000862,41.841698 111.068207,35.664291 
	C115.060951,33.620358 119.338020,32.131840 123.629578,30.328667 
	C120.153122,24.409733 119.676796,18.480677 121.269997,12.304587 
	C123.029976,5.481941 134.560425,1.407727 139.403946,6.027230 
	C144.791931,11.166018 149.955490,16.539320 155.278809,21.747105 
	C157.631790,24.049034 159.784470,26.198606 163.845734,24.255075 
	C165.926178,23.259470 169.028793,24.006121 171.581558,24.459866 
	C182.197296,26.346785 187.167084,34.338654 190.932053,43.238792 
	C192.502869,46.952141 192.623428,51.281738 194.211456,54.984581 
	C201.923233,72.966187 205.526566,91.759911 206.148605,111.226074 
	C206.350220,117.536049 206.691040,123.844398 207.117172,130.143417 
	C207.424728,134.689713 207.978699,139.219345 208.427917,143.808884 
	C205.827072,142.073624 203.857147,140.759308 201.004272,138.855896 
	C201.004272,143.375183 201.004272,146.552902 201.004272,149.730621 
	C200.718475,149.808868 200.432678,149.887115 200.146881,149.965363 
	C197.794296,144.888535 195.441711,139.811707 193.089127,134.734879 
	C192.528854,134.915405 191.968582,135.095932 191.408310,135.276443 
	C192.380081,143.064758 193.351852,150.853058 194.317413,158.591690 
	C190.886566,156.867432 187.802536,155.317474 183.015289,152.911530 
	C186.662964,170.436783 190.039886,186.661179 193.404144,202.824692 
	C199.706375,201.509766 204.501312,196.378937 211.206100,198.633240 
	C208.193451,204.367020 203.874817,207.438599 197.772583,208.355331 
	C196.461166,208.552353 194.242035,210.995712 194.477188,211.831039 
	C195.831070,216.640015 194.671707,222.103790 198.603821,226.321365 
	C200.561890,228.421585 201.564941,231.412170 203.000000,234.000000 
	C171.312439,234.000000 139.624878,234.000000 107.502151,233.603348 
	C106.896515,232.540756 106.726044,231.874832 106.555573,231.208893 
	C106.324371,231.254242 106.093163,231.299591 105.861961,231.344955 
	C105.907974,232.229965 105.953987,233.114990 106.000000,234.000000 
z"/>
<path fill="#FDFDFD" opacity="1.000000" stroke="none" 
	d="
M203.474121,234.000000 
	C201.564941,231.412170 200.561890,228.421585 198.603821,226.321365 
	C194.671707,222.103790 195.831070,216.640015 194.477188,211.831039 
	C194.242035,210.995712 196.461166,208.552353 197.772583,208.355331 
	C203.874817,207.438599 208.193451,204.367020 211.206100,198.633240 
	C204.501312,196.378937 199.706375,201.509766 193.404144,202.824692 
	C190.039886,186.661179 186.662964,170.436783 183.015289,152.911530 
	C187.802536,155.317474 190.886566,156.867432 194.317413,158.591690 
	C193.351852,150.853058 192.380081,143.064758 191.408310,135.276443 
	C191.968582,135.095932 192.528854,134.915405 193.089127,134.734879 
	C195.441711,139.811707 197.794296,144.888535 200.146881,149.965363 
	C200.432678,149.887115 200.718475,149.808868 201.004272,149.730621 
	C201.004272,146.552902 201.004272,143.375183 201.004272,138.855896 
	C203.857147,140.759308 205.827072,142.073624 208.427917,143.808884 
	C207.978699,139.219345 207.424728,134.689713 207.117172,130.143417 
	C206.691040,123.844398 206.350220,117.536049 206.148605,111.226074 
	C205.526566,91.759911 201.923233,72.966187 194.211456,54.984581 
	C192.623428,51.281738 192.502869,46.952141 190.932053,43.238792 
	C187.167084,34.338654 182.197296,26.346785 171.581558,24.459866 
	C169.028793,24.006121 165.926178,23.259470 163.845734,24.255075 
	C159.784470,26.198606 157.631790,24.049034 155.278809,21.747105 
	C149.955490,16.539320 144.791931,11.166018 139.403946,6.027230 
	C134.560425,1.407727 123.029976,5.481941 121.269997,12.304587 
	C119.676796,18.480677 120.153122,24.409733 123.629578,30.328667 
	C119.338020,32.131840 115.060951,33.620358 111.068207,35.664291 
	C99.000862,41.841698 90.369217,50.685886 86.417892,64.319923 
	C84.583824,70.648354 84.575165,76.407280 86.599998,82.037041 
	C87.685326,85.054672 91.062721,87.406120 93.754295,89.637909 
	C95.918266,91.432236 98.927147,92.262833 100.916740,94.187263 
	C101.816277,95.057350 101.640007,97.731606 101.061249,99.247276 
	C100.459091,100.824165 98.782585,101.990807 98.123886,102.725540 
	C101.939690,107.452751 105.574036,111.763893 108.987259,116.243523 
	C111.770203,119.895927 113.140663,123.940933 114.286324,128.592911 
	C115.634880,134.068787 117.246025,139.340408 116.964531,144.998611 
	C116.834862,147.605042 116.472916,150.263077 115.742592,152.759094 
	C114.979897,155.365768 113.888763,157.957642 112.447998,160.245377 
	C111.855759,161.185730 109.909782,161.864304 108.689232,161.721924 
	C100.978302,160.822433 98.748322,162.349045 99.682037,169.949188 
	C100.692566,178.174637 93.839630,180.834473 89.890617,185.557587 
	C89.454338,186.079391 87.717041,185.738403 86.659813,185.481750 
	C74.158379,182.446930 61.579884,179.660324 49.262142,175.999313 
	C46.940483,175.309265 45.184566,171.265961 44.060677,168.417587 
	C43.009621,165.753784 43.291138,162.593552 42.728951,159.701797 
	C41.262177,152.157074 34.725529,148.126938 27.152887,149.943756 
	C25.426638,150.357941 23.681820,150.694702 21.723982,151.114624 
	C21.073124,149.094528 20.547140,147.462006 20.021154,145.829483 
	C20.581945,153.024292 15.039473,153.481537 10.381719,155.065613 
	C6.280198,156.460480 1.463467,164.984528 2.655944,169.608185 
	C4.509019,176.793228 4.981612,184.975006 12.388694,189.299500 
	C16.387861,191.634354 20.779009,193.416061 25.175961,194.909637 
	C28.088306,195.898895 31.324535,195.934692 35.446201,196.551559 
	C30.836884,208.938461 26.307116,221.111572 21.888674,233.642349 
	C15.004380,234.000000 8.008761,234.000000 1.009856,234.000000 
	C1.006571,156.386322 1.006571,78.772636 1.006571,1.079475 
	C72.901878,1.079475 144.803879,1.079475 216.852936,1.079475 
	C216.852936,78.666451 216.852936,156.333191 216.852936,234.000000 
	C212.609589,234.000000 208.278915,234.000000 203.474121,234.000000 
z"/>
<path fill="#E9E8E9" opacity="1.000000" stroke="none" 
	d="
M106.250000,234.000000 
	C105.953987,233.114990 105.907974,232.229965 105.861961,231.344955 
	C106.093163,231.299591 106.324371,231.254242 106.555573,231.208893 
	C106.726044,231.874832 106.896515,232.540756 107.033493,233.603348 
	C107.000000,234.000000 106.500000,234.000000 106.250000,234.000000 
z"/>
</svg>